# Tiled2Unity generated file. Do not modify by hand.
# Wavefront file for 'Overworld1_mesh_0002.obj'

# Vertices (Count = 548)
v -24 -1 0
v -25 -1 0
v -25 0 0
v -24 0 0
v -23 -1 0
v -24 -1 0
v -24 0 0
v -23 0 0
v -22 -1 0
v -23 -1 0
v -23 0 0
v -22 0 0
v -21 -1 0
v -22 -1 0
v -22 0 0
v -21 0 0
v -20 -1 0
v -21 -1 0
v -21 0 0
v -20 0 0
v -19 -1 0
v -20 -1 0
v -20 0 0
v -19 0 0
v -18 -1 0
v -19 -1 0
v -19 0 0
v -18 0 0
v -17 -1 0
v -18 -1 0
v -18 0 0
v -17 0 0
v -16 -1 0
v -17 -1 0
v -17 0 0
v -16 0 0
v -15 -1 0
v -16 -1 0
v -16 0 0
v -15 0 0
v -14 -1 0
v -15 -1 0
v -15 0 0
v -14 0 0
v -13 -1 0
v -14 -1 0
v -14 0 0
v -13 0 0
v -10 -1 0
v -11 -1 0
v -11 0 0
v -10 0 0
v -9 -1 0
v -10 -1 0
v -10 0 0
v -9 0 0
v -8 -1 0
v -9 -1 0
v -9 0 0
v -8 0 0
v -7 -1 0
v -8 -1 0
v -8 0 0
v -7 0 0
v -6 -1 0
v -7 -1 0
v -7 0 0
v -6 0 0
v -5 -1 0
v -6 -1 0
v -6 0 0
v -5 0 0
v -4 -1 0
v -5 -1 0
v -5 0 0
v -4 0 0
v -3 -1 0
v -4 -1 0
v -4 0 0
v -3 0 0
v -2 -1 0
v -3 -1 0
v -3 0 0
v -2 0 0
v -1 -1 0
v -2 -1 0
v -2 0 0
v -1 0 0
v 0 -1 0
v -1 -1 0
v -1 0 0
v 0 0 0
v -24 -2 0
v -25 -2 0
v -25 -1 0
v -24 -1 0
v 0 -2 0
v -1 -2 0
v -1 -1 0
v 0 -1 0
v -24 -3 0
v -25 -3 0
v -25 -2 0
v -24 -2 0
v -21 -3 0
v -22 -3 0
v -22 -2 0
v -21 -2 0
v -20 -3 0
v -21 -3 0
v -21 -2 0
v -20 -2 0
v 0 -3 0
v -1 -3 0
v -1 -2 0
v 0 -2 0
v -24 -4 0
v -25 -4 0
v -25 -3 0
v -24 -3 0
v -21 -4 0
v -22 -4 0
v -22 -3 0
v -21 -3 0
v -20 -4 0
v -21 -4 0
v -21 -3 0
v -20 -3 0
v 0 -4 0
v -1 -4 0
v -1 -3 0
v 0 -3 0
v -24 -5 0
v -25 -5 0
v -25 -4 0
v -24 -4 0
v -7 -5 0
v -8 -5 0
v -8 -4 0
v -7 -4 0
v -6 -5 0
v -7 -5 0
v -7 -4 0
v -6 -4 0
v -5 -5 0
v -6 -5 0
v -6 -4 0
v -5 -4 0
v -4 -5 0
v -5 -5 0
v -5 -4 0
v -4 -4 0
v -3 -5 0
v -4 -5 0
v -4 -4 0
v -3 -4 0
v 0 -5 0
v -1 -5 0
v -1 -4 0
v 0 -4 0
v -24 -6 0
v -25 -6 0
v -25 -5 0
v -24 -5 0
v -7 -6 0
v -8 -6 0
v -8 -5 0
v -7 -5 0
v -6 -6 0
v -7 -6 0
v -7 -5 0
v -6 -5 0
v -5 -6 0
v -6 -6 0
v -6 -5 0
v -5 -5 0
v -4 -6 0
v -5 -6 0
v -5 -5 0
v -4 -5 0
v -3 -6 0
v -4 -6 0
v -4 -5 0
v -3 -5 0
v 0 -6 0
v -1 -6 0
v -1 -5 0
v 0 -5 0
v -24 -7 0
v -25 -7 0
v -25 -6 0
v -24 -6 0
v -9 -7 0
v -10 -7 0
v -10 -6 0
v -9 -6 0
v -8 -7 0
v -9 -7 0
v -9 -6 0
v -8 -6 0
v -7 -7 0
v -8 -7 0
v -8 -6 0
v -7 -6 0
v -6 -7 0
v -7 -7 0
v -7 -6 0
v -6 -6 0
v -5 -7 0
v -6 -7 0
v -6 -6 0
v -5 -6 0
v -4 -7 0
v -5 -7 0
v -5 -6 0
v -4 -6 0
v -3 -7 0
v -4 -7 0
v -4 -6 0
v -3 -6 0
v 0 -7 0
v -1 -7 0
v -1 -6 0
v 0 -6 0
v -24 -8 0
v -25 -8 0
v -25 -7 0
v -24 -7 0
v -9 -8 0
v -10 -8 0
v -10 -7 0
v -9 -7 0
v -8 -8 0
v -9 -8 0
v -9 -7 0
v -8 -7 0
v -7 -8 0
v -8 -8 0
v -8 -7 0
v -7 -7 0
v -6 -8 0
v -7 -8 0
v -7 -7 0
v -6 -7 0
v -5 -8 0
v -6 -8 0
v -6 -7 0
v -5 -7 0
v -4 -8 0
v -5 -8 0
v -5 -7 0
v -4 -7 0
v -3 -8 0
v -4 -8 0
v -4 -7 0
v -3 -7 0
v 0 -8 0
v -1 -8 0
v -1 -7 0
v 0 -7 0
v -24 -9 0
v -25 -9 0
v -25 -8 0
v -24 -8 0
v -17 -9 0
v -18 -9 0
v -18 -8 0
v -17 -8 0
v -16 -9 0
v -17 -9 0
v -17 -8 0
v -16 -8 0
v -9 -9 0
v -10 -9 0
v -10 -8 0
v -9 -8 0
v -8 -9 0
v -9 -9 0
v -9 -8 0
v -8 -8 0
v -7 -9 0
v -8 -9 0
v -8 -8 0
v -7 -8 0
v -6 -9 0
v -7 -9 0
v -7 -8 0
v -6 -8 0
v -5 -9 0
v -6 -9 0
v -6 -8 0
v -5 -8 0
v -4 -9 0
v -5 -9 0
v -5 -8 0
v -4 -8 0
v -3 -9 0
v -4 -9 0
v -4 -8 0
v -3 -8 0
v 0 -9 0
v -1 -9 0
v -1 -8 0
v 0 -8 0
v -24 -10 0
v -25 -10 0
v -25 -9 0
v -24 -9 0
v -17 -10 0
v -18 -10 0
v -18 -9 0
v -17 -9 0
v -16 -10 0
v -17 -10 0
v -17 -9 0
v -16 -9 0
v 0 -10 0
v -1 -10 0
v -1 -9 0
v 0 -9 0
v -24 -11 0
v -25 -11 0
v -25 -10 0
v -24 -10 0
v 0 -11 0
v -1 -11 0
v -1 -10 0
v 0 -10 0
v -24 -12 0
v -25 -12 0
v -25 -11 0
v -24 -11 0
v 0 -12 0
v -1 -12 0
v -1 -11 0
v 0 -11 0
v -24 -13 0
v -25 -13 0
v -25 -12 0
v -24 -12 0
v 0 -13 0
v -1 -13 0
v -1 -12 0
v 0 -12 0
v -24 -14 0
v -25 -14 0
v -25 -13 0
v -24 -13 0
v -24 -15 0
v -25 -15 0
v -25 -14 0
v -24 -14 0
v 0 -16 0
v -1 -16 0
v -1 -15 0
v 0 -15 0
v 0 -17 0
v -1 -17 0
v -1 -16 0
v 0 -16 0
v -24 -18 0
v -25 -18 0
v -25 -17 0
v -24 -17 0
v 0 -18 0
v -1 -18 0
v -1 -17 0
v 0 -17 0
v -24 -19 0
v -25 -19 0
v -25 -18 0
v -24 -18 0
v 0 -19 0
v -1 -19 0
v -1 -18 0
v 0 -18 0
v -24 -20 0
v -25 -20 0
v -25 -19 0
v -24 -19 0
v -6 -20 0
v -7 -20 0
v -7 -19 0
v -6 -19 0
v -5 -20 0
v -6 -20 0
v -6 -19 0
v -5 -19 0
v 0 -20 0
v -1 -20 0
v -1 -19 0
v 0 -19 0
v -24 -21 0
v -25 -21 0
v -25 -20 0
v -24 -20 0
v -21 -21 0
v -22 -21 0
v -22 -20 0
v -21 -20 0
v -20 -21 0
v -21 -21 0
v -21 -20 0
v -20 -20 0
v -6 -21 0
v -7 -21 0
v -7 -20 0
v -6 -20 0
v -5 -21 0
v -6 -21 0
v -6 -20 0
v -5 -20 0
v 0 -21 0
v -1 -21 0
v -1 -20 0
v 0 -20 0
v -24 -22 0
v -25 -22 0
v -25 -21 0
v -24 -21 0
v -21 -22 0
v -22 -22 0
v -22 -21 0
v -21 -21 0
v -20 -22 0
v -21 -22 0
v -21 -21 0
v -20 -21 0
v 0 -22 0
v -1 -22 0
v -1 -21 0
v 0 -21 0
v -24 -23 0
v -25 -23 0
v -25 -22 0
v -24 -22 0
v 0 -23 0
v -1 -23 0
v -1 -22 0
v 0 -22 0
v -24 -24 0
v -25 -24 0
v -25 -23 0
v -24 -23 0
v 0 -24 0
v -1 -24 0
v -1 -23 0
v 0 -23 0
v -24 -25 0
v -25 -25 0
v -25 -24 0
v -24 -24 0
v -23 -25 0
v -24 -25 0
v -24 -24 0
v -23 -24 0
v -22 -25 0
v -23 -25 0
v -23 -24 0
v -22 -24 0
v -21 -25 0
v -22 -25 0
v -22 -24 0
v -21 -24 0
v -20 -25 0
v -21 -25 0
v -21 -24 0
v -20 -24 0
v -19 -25 0
v -20 -25 0
v -20 -24 0
v -19 -24 0
v -18 -25 0
v -19 -25 0
v -19 -24 0
v -18 -24 0
v -17 -25 0
v -18 -25 0
v -18 -24 0
v -17 -24 0
v -16 -25 0
v -17 -25 0
v -17 -24 0
v -16 -24 0
v -15 -25 0
v -16 -25 0
v -16 -24 0
v -15 -24 0
v -14 -25 0
v -15 -25 0
v -15 -24 0
v -14 -24 0
v -13 -25 0
v -14 -25 0
v -14 -24 0
v -13 -24 0
v -12 -25 0
v -13 -25 0
v -13 -24 0
v -12 -24 0
v -11 -25 0
v -12 -25 0
v -12 -24 0
v -11 -24 0
v -10 -25 0
v -11 -25 0
v -11 -24 0
v -10 -24 0
v -9 -25 0
v -10 -25 0
v -10 -24 0
v -9 -24 0
v -8 -25 0
v -9 -25 0
v -9 -24 0
v -8 -24 0
v -7 -25 0
v -8 -25 0
v -8 -24 0
v -7 -24 0
v -6 -25 0
v -7 -25 0
v -7 -24 0
v -6 -24 0
v -5 -25 0
v -6 -25 0
v -6 -24 0
v -5 -24 0
v -4 -25 0
v -5 -25 0
v -5 -24 0
v -4 -24 0
v -3 -25 0
v -4 -25 0
v -4 -24 0
v -3 -24 0
v -2 -25 0
v -3 -25 0
v -3 -24 0
v -2 -24 0
v -1 -25 0
v -2 -25 0
v -2 -24 0
v -1 -24 0
v 0 -25 0
v -1 -25 0
v -1 -24 0
v 0 -24 0

# Texture cooridinates (Count = 85)
vt 0.175 0.5
vt 0.2 0.5
vt 0.2 0.5277778
vt 0.175 0.5277778
vt 0.125 0.4444444
vt 0.15 0.4444444
vt 0.15 0.4722222
vt 0.125 0.4722222
vt 0.125 0.5
vt 0.15 0.5
vt 0.15 0.5277778
vt 0.125 0.5277778
vt 0.2 0.5555556
vt 0.175 0.5555556
vt 0.175 0.4722222
vt 0.2 0.4722222
vt 0.8 0.8888889
vt 0.825 0.8888889
vt 0.825 0.9166667
vt 0.8 0.9166667
vt 0.775 0.8888889
vt 0.775 0.9166667
vt 0.8 0.8611111
vt 0.825 0.8611111
vt 0.775 0.8611111
vt 0.25 0.9722222
vt 0.275 0.9722222
vt 0.275 1
vt 0.25 1
vt 0.225 0.9722222
vt 0.225 1
vt 0.2 0.9722222
vt 0.2 1
vt 0.175 0.9722222
vt 0.175 1
vt 0.15 0.9722222
vt 0.15 1
vt 0.25 0.9444444
vt 0.275 0.9444444
vt 0.225 0.9444444
vt 0.2 0.9444444
vt 0.175 0.9444444
vt 0.15 0.9444444
vt 0.35 0.8333333
vt 0.375 0.8333333
vt 0.375 0.8611111
vt 0.35 0.8611111
vt 0.325 0.8333333
vt 0.325 0.8611111
vt 0.25 0.9166667
vt 0.275 0.9166667
vt 0.225 0.9166667
vt 0.2 0.9166667
vt 0.175 0.9166667
vt 0.15 0.9166667
vt 0.35 0.8055556
vt 0.375 0.8055556
vt 0.325 0.8055556
vt 0.25 0.8888889
vt 0.275 0.8888889
vt 0.225 0.8888889
vt 0.2 0.8888889
vt 0.175 0.8888889
vt 0.15 0.8888889
vt 0.125 0.9444444
vt 0.125 0.9722222
vt 0.1 0.9444444
vt 0.1 0.9722222
vt 0.35 0.7777778
vt 0.375 0.7777778
vt 0.325 0.7777778
vt 0.25 0.8611111
vt 0.275 0.8611111
vt 0.225 0.8611111
vt 0.2 0.8611111
vt 0.175 0.8611111
vt 0.15 0.8611111
vt 0.125 0.9166667
vt 0.1 0.9166667
vt 0.15 0.5555556
vt 0.125 0.5555556
vt 0.075 0.5277778
vt 0.1 0.5277778
vt 0.1 0.5555556
vt 0.075 0.5555556

# Normal
vn 0 0 -1

# Mesh description
g Overworld1_mesh_0002

# Faces
f 1/1/1 2/2/1 3/3/1 4/4/1
f 5/5/1 6/6/1 7/7/1 8/8/1
f 9/5/1 10/6/1 11/7/1 12/8/1
f 13/5/1 14/6/1 15/7/1 16/8/1
f 17/5/1 18/6/1 19/7/1 20/8/1
f 21/5/1 22/6/1 23/7/1 24/8/1
f 25/5/1 26/6/1 27/7/1 28/8/1
f 29/5/1 30/6/1 31/7/1 32/8/1
f 33/5/1 34/6/1 35/7/1 36/8/1
f 37/5/1 38/6/1 39/7/1 40/8/1
f 41/5/1 42/6/1 43/7/1 44/8/1
f 45/9/1 46/10/1 47/11/1 48/12/1
f 49/10/1 50/1/1 51/4/1 52/11/1
f 53/5/1 54/6/1 55/7/1 56/8/1
f 57/5/1 58/6/1 59/7/1 60/8/1
f 61/5/1 62/6/1 63/7/1 64/8/1
f 65/5/1 66/6/1 67/7/1 68/8/1
f 69/5/1 70/6/1 71/7/1 72/8/1
f 73/5/1 74/6/1 75/7/1 76/8/1
f 77/5/1 78/6/1 79/7/1 80/8/1
f 81/5/1 82/6/1 83/7/1 84/8/1
f 85/5/1 86/6/1 87/7/1 88/8/1
f 89/4/1 90/3/1 91/13/1 92/14/1
f 93/7/1 94/15/1 95/1/1 96/10/1
f 97/15/1 98/16/1 99/2/1 100/1/1
f 101/7/1 102/15/1 103/1/1 104/10/1
f 105/17/1 106/18/1 107/19/1 108/20/1
f 109/21/1 110/17/1 111/20/1 112/22/1
f 113/15/1 114/16/1 115/2/1 116/1/1
f 117/7/1 118/15/1 119/1/1 120/10/1
f 121/23/1 122/24/1 123/18/1 124/17/1
f 125/25/1 126/23/1 127/17/1 128/21/1
f 129/15/1 130/16/1 131/2/1 132/1/1
f 133/7/1 134/15/1 135/1/1 136/10/1
f 137/26/1 138/27/1 139/28/1 140/29/1
f 141/30/1 142/26/1 143/29/1 144/31/1
f 145/32/1 146/30/1 147/31/1 148/33/1
f 149/34/1 150/32/1 151/33/1 152/35/1
f 153/36/1 154/34/1 155/35/1 156/37/1
f 157/15/1 158/16/1 159/2/1 160/1/1
f 161/7/1 162/15/1 163/1/1 164/10/1
f 165/38/1 166/39/1 167/27/1 168/26/1
f 169/40/1 170/38/1 171/26/1 172/30/1
f 173/41/1 174/40/1 175/30/1 176/32/1
f 177/42/1 178/41/1 179/32/1 180/34/1
f 181/43/1 182/42/1 183/34/1 184/36/1
f 185/15/1 186/16/1 187/2/1 188/1/1
f 189/7/1 190/15/1 191/1/1 192/10/1
f 193/44/1 194/45/1 195/46/1 196/47/1
f 197/48/1 198/44/1 199/47/1 200/49/1
f 201/50/1 202/51/1 203/39/1 204/38/1
f 205/52/1 206/50/1 207/38/1 208/40/1
f 209/53/1 210/52/1 211/40/1 212/41/1
f 213/54/1 214/53/1 215/41/1 216/42/1
f 217/55/1 218/54/1 219/42/1 220/43/1
f 221/15/1 222/16/1 223/2/1 224/1/1
f 225/7/1 226/15/1 227/1/1 228/10/1
f 229/56/1 230/57/1 231/45/1 232/44/1
f 233/58/1 234/56/1 235/44/1 236/48/1
f 237/59/1 238/60/1 239/51/1 240/50/1
f 241/61/1 242/59/1 243/50/1 244/52/1
f 245/62/1 246/61/1 247/52/1 248/53/1
f 249/63/1 250/62/1 251/53/1 252/54/1
f 253/64/1 254/63/1 255/54/1 256/55/1
f 257/15/1 258/16/1 259/2/1 260/1/1
f 261/7/1 262/15/1 263/1/1 264/10/1
f 265/65/1 266/43/1 267/36/1 268/66/1
f 269/67/1 270/65/1 271/66/1 272/68/1
f 273/69/1 274/70/1 275/57/1 276/56/1
f 277/71/1 278/69/1 279/56/1 280/58/1
f 281/72/1 282/73/1 283/60/1 284/59/1
f 285/74/1 286/72/1 287/59/1 288/61/1
f 289/75/1 290/74/1 291/61/1 292/62/1
f 293/76/1 294/75/1 295/62/1 296/63/1
f 297/77/1 298/76/1 299/63/1 300/64/1
f 301/15/1 302/16/1 303/2/1 304/1/1
f 305/7/1 306/15/1 307/1/1 308/10/1
f 309/78/1 310/55/1 311/43/1 312/65/1
f 313/79/1 314/78/1 315/65/1 316/67/1
f 317/15/1 318/16/1 319/2/1 320/1/1
f 321/7/1 322/15/1 323/1/1 324/10/1
f 325/15/1 326/16/1 327/2/1 328/1/1
f 329/7/1 330/15/1 331/1/1 332/10/1
f 333/15/1 334/16/1 335/2/1 336/1/1
f 337/7/1 338/15/1 339/1/1 340/10/1
f 341/10/1 342/1/1 343/4/1 344/11/1
f 345/7/1 346/15/1 347/1/1 348/10/1
f 349/9/1 350/10/1 351/11/1 352/12/1
f 353/11/1 354/4/1 355/14/1 356/80/1
f 357/15/1 358/16/1 359/2/1 360/1/1
f 361/12/1 362/11/1 363/80/1 364/81/1
f 365/15/1 366/16/1 367/2/1 368/1/1
f 369/7/1 370/15/1 371/1/1 372/10/1
f 373/15/1 374/16/1 375/2/1 376/1/1
f 377/7/1 378/15/1 379/1/1 380/10/1
f 381/17/1 382/18/1 383/19/1 384/20/1
f 385/21/1 386/17/1 387/20/1 388/22/1
f 389/15/1 390/16/1 391/2/1 392/1/1
f 393/7/1 394/15/1 395/1/1 396/10/1
f 397/17/1 398/18/1 399/19/1 400/20/1
f 401/21/1 402/17/1 403/20/1 404/22/1
f 405/23/1 406/24/1 407/18/1 408/17/1
f 409/25/1 410/23/1 411/17/1 412/21/1
f 413/15/1 414/16/1 415/2/1 416/1/1
f 417/7/1 418/15/1 419/1/1 420/10/1
f 421/23/1 422/24/1 423/18/1 424/17/1
f 425/25/1 426/23/1 427/17/1 428/21/1
f 429/15/1 430/16/1 431/2/1 432/1/1
f 433/7/1 434/15/1 435/1/1 436/10/1
f 437/15/1 438/16/1 439/2/1 440/1/1
f 441/7/1 442/15/1 443/1/1 444/10/1
f 445/15/1 446/16/1 447/2/1 448/1/1
f 449/82/1 450/83/1 451/84/1 452/85/1
f 453/8/1 454/7/1 455/10/1 456/9/1
f 457/8/1 458/7/1 459/10/1 460/9/1
f 461/8/1 462/7/1 463/10/1 464/9/1
f 465/8/1 466/7/1 467/10/1 468/9/1
f 469/8/1 470/7/1 471/10/1 472/9/1
f 473/8/1 474/7/1 475/10/1 476/9/1
f 477/8/1 478/7/1 479/10/1 480/9/1
f 481/8/1 482/7/1 483/10/1 484/9/1
f 485/8/1 486/7/1 487/10/1 488/9/1
f 489/8/1 490/7/1 491/10/1 492/9/1
f 493/8/1 494/7/1 495/10/1 496/9/1
f 497/8/1 498/7/1 499/10/1 500/9/1
f 501/8/1 502/7/1 503/10/1 504/9/1
f 505/8/1 506/7/1 507/10/1 508/9/1
f 509/8/1 510/7/1 511/10/1 512/9/1
f 513/8/1 514/7/1 515/10/1 516/9/1
f 517/8/1 518/7/1 519/10/1 520/9/1
f 521/8/1 522/7/1 523/10/1 524/9/1
f 525/8/1 526/7/1 527/10/1 528/9/1
f 529/8/1 530/7/1 531/10/1 532/9/1
f 533/8/1 534/7/1 535/10/1 536/9/1
f 537/8/1 538/7/1 539/10/1 540/9/1
f 541/8/1 542/7/1 543/10/1 544/9/1
f 545/83/1 546/12/1 547/81/1 548/84/1

